<?xml version="1.0" encoding="UTF-8"?>
<svg id="Layer_1" data-name="Layer 1" xmlns="http://www.w3.org/2000/svg" viewBox="0 0 696.76 649.36">
  <defs>
    <style>
      .cls-1 {
        fill: #fdbf40;
      }

      .cls-2 {
        fill: #787878;
      }
    </style>
  </defs>
  <path class="cls-1" d="M535.94,72.95c10.19-8.49,20.38-16.98,30.57-25.47-12.11-9.89-24.22-19.79-36.33-29.68,11.16,1,78.57,8.2,124.27,67.79,4.09,5.34,43.27,54.72,35,126.27-2.14,18.49-6.5,33.53-10.41,43.86l17.72,11.08-72.81,27.39c-4.65-25.62-8.64-51.32-12.63-76.79,7.09,3.77,12.18,6.65,19.72,10.63,8.64-34.78,3.99-81.08-20.16-109.21-31.65-36.88-62.25-42.53-74.95-45.85Z"/>
  <path class="cls-1" d="M608.1,271.57c2.15,13.09,4.29,26.18,6.44,39.27,14.67-5.41,29.34-10.83,44.01-16.24-6.53,9.11-46.94,63.55-121.47,72.69-6.68.82-69.1,9.52-126.56-33.91-14.85-11.22-25.6-22.62-32.51-31.23-6.18,3.22-12.36,6.43-18.54,9.65,4.45-25.55,8.89-51.09,13.34-76.64,24.44,8.99,48.61,18.6,72.58,28.09-6.84,4.2-11.91,7.13-19.17,11.59,25.59,25.09,67.84,44.57,104.34,38.04,47.84-8.56,68.23-32.06,77.54-41.32Z"/>
  <path class="cls-1" d="M401.21,235.36c-12.41-4.7-24.81-9.39-37.22-14.09-2.66,15.41-5.32,30.82-7.98,46.23-4.62-10.22-31.5-72.45-2.1-141.54,2.63-6.19,26.36-64.59,92.73-92.57,17.15-7.23,32.39-10.83,43.31-12.51.31-6.96.62-13.92.93-20.88,19.89,16.64,39.77,33.28,59.66,49.92-20.02,16.65-40.44,32.76-60.66,48.76-.21-8.02-.21-13.88-.44-22.4-34.53,9.58-72.56,36.4-85.18,71.26-16.55,45.7-6.42,75.12-3.07,87.81Z"/>
  <path class="cls-1" d="M0,368.81V12.53h147.49c35.87,0,67.66,7.38,95.36,22.14,27.7,14.76,49.24,35.55,64.62,62.35,15.37,26.81,23.06,58.02,23.06,93.65s-7.69,66.85-23.06,93.65c-15.37,26.81-36.92,47.59-64.62,62.35-27.71,14.76-59.5,22.14-95.36,22.14H0ZM62.45,312.82h81.19c25.3,0,47.16-5.09,65.58-15.27,18.41-10.18,32.83-24.43,43.24-42.75,10.4-18.32,15.61-39.7,15.61-64.13s-5.21-46.65-15.61-64.64c-10.41-17.98-24.82-32.07-43.24-42.25-18.42-10.18-40.28-15.27-65.58-15.27H62.45v244.31Z"/>
  <g>
    <path class="cls-2" d="M1.52,592.52v-205.1h21.68v186.35h114.86v18.75H1.52Z"/>
    <path class="cls-2" d="M232.4,593.98c-15.04,0-28.42-3.37-40.14-10.11-11.72-6.74-21-16.06-27.83-27.98-6.84-11.91-10.25-25.39-10.25-40.43s3.42-29.01,10.25-40.73c6.84-11.72,16.12-20.9,27.83-27.54,11.72-6.64,25.1-9.96,40.14-9.96s28.76,3.37,40.58,10.11c11.82,6.74,21.1,15.92,27.83,27.54,6.74,11.62,10.11,25.15,10.11,40.58s-3.37,28.76-10.11,40.58c-6.74,11.82-16.07,21.1-27.98,27.83-11.92,6.74-25.4,10.11-40.43,10.11ZM232.4,575.52c11.13,0,21-2.49,29.59-7.47,8.59-4.98,15.38-12.01,20.36-21.1s7.47-19.58,7.47-31.5-2.49-22.66-7.47-31.64c-4.98-8.98-11.77-15.97-20.36-20.95-8.6-4.98-18.36-7.47-29.3-7.47s-20.71,2.49-29.3,7.47c-8.6,4.98-15.43,11.97-20.51,20.95-5.08,8.99-7.62,19.54-7.62,31.64s2.54,22.41,7.62,31.5c5.08,9.08,11.87,16.12,20.36,21.1,8.5,4.98,18.21,7.47,29.15,7.47Z"/>
    <path class="cls-2" d="M416.12,593.98c-15.04,0-28.42-3.37-40.14-10.11-11.72-6.74-21-16.06-27.83-27.98-6.84-11.91-10.26-25.39-10.26-40.43s3.42-29.01,10.26-40.73c6.83-11.72,16.11-20.9,27.83-27.54,11.72-6.64,25.1-9.96,40.14-9.96s28.76,3.37,40.58,10.11c11.82,6.74,21.1,15.92,27.84,27.54,6.74,11.62,10.11,25.15,10.11,40.58s-3.37,28.76-10.11,40.58c-6.74,11.82-16.07,21.1-27.98,27.83-11.92,6.74-25.39,10.11-40.43,10.11ZM416.12,575.52c11.13,0,21-2.49,29.59-7.47,8.59-4.98,15.38-12.01,20.36-21.1,4.98-9.08,7.47-19.58,7.47-31.5s-2.49-22.66-7.47-31.64c-4.98-8.98-11.77-15.97-20.36-20.95-8.6-4.98-18.36-7.47-29.3-7.47s-20.71,2.49-29.3,7.47c-8.6,4.98-15.43,11.97-20.51,20.95-5.08,8.99-7.62,19.54-7.62,31.64s2.54,22.41,7.62,31.5c5.08,9.08,11.87,16.12,20.36,21.1,8.5,4.98,18.21,7.47,29.15,7.47Z"/>
    <path class="cls-2" d="M537.12,649.36v-210.67h19.92v46.29l-2.05,30.77,2.93,31.06v102.55h-20.8ZM616.53,593.98c-13.29,0-25.3-3.08-36.04-9.23-10.75-6.15-19.29-15.04-25.64-26.66-6.35-11.62-9.52-25.83-9.52-42.63s3.12-31.01,9.38-42.63c6.25-11.62,14.75-20.46,25.49-26.52,10.74-6.05,22.85-9.08,36.33-9.08,14.65,0,27.78,3.27,39.41,9.82,11.62,6.55,20.75,15.73,27.4,27.54,6.64,11.82,9.96,25.45,9.96,40.87s-3.32,29.3-9.96,41.02c-6.64,11.72-15.78,20.9-27.4,27.54-11.62,6.64-24.76,9.96-39.41,9.96ZM615.06,575.52c10.94,0,20.7-2.49,29.3-7.47,8.59-4.98,15.43-12.01,20.51-21.1,5.08-9.08,7.62-19.58,7.62-31.5s-2.54-22.36-7.62-31.35c-5.08-8.98-11.92-16.01-20.51-21.1-8.6-5.08-18.36-7.62-29.3-7.62s-20.76,2.54-29.45,7.62c-8.69,5.08-15.53,12.11-20.51,21.1-4.98,8.99-7.47,19.44-7.47,31.35s2.49,22.41,7.47,31.5c4.98,9.08,11.82,16.12,20.51,21.1,8.69,4.98,18.5,7.47,29.45,7.47Z"/>
  </g>
</svg>

