<?xml version="1.0" encoding="UTF-8"?>
<svg id="Layer_1" data-name="Layer 1" xmlns="http://www.w3.org/2000/svg" viewBox="0 0 1275.61 834.28">
  <defs>
    <style>
      .cls-1, .cls-2 {
        fill: none;
      }

      .cls-2 {
        stroke-width: 11px;
      }

      .cls-2, .cls-3, .cls-4 {
        stroke: #000;
      }

      .cls-2, .cls-3, .cls-4, .cls-5, .cls-6, .cls-7 {
        stroke-miterlimit: 10;
      }

      .cls-3, .cls-4, .cls-5, .cls-6, .cls-7 {
        stroke-width: 3px;
      }

      .cls-3, .cls-5 {
        fill: #fdbf40;
      }

      .cls-5, .cls-6, .cls-7 {
        stroke: #787878;
      }

      .cls-6 {
        fill: #fff;
      }

      .cls-7 {
        fill: #99c0d6;
      }
    </style>
  </defs>
  <path class="cls-3" d="M59.9,584.37s-17.72-8.86-47.85-35.44,10.63,54.94,42.53,72.66,5.32-37.22,5.32-37.22Z"/>
  <path class="cls-4" d="M449.78,458.54s-50.78-89.5-148.86-69.11-227.28,103.54-239.24,184.31c-7.09,47.85-20.39,89.92,42.53,150.63s178.99,92.15,233.93,88.61,116.24-48.56,127.6-86.84-15.95-267.6-15.95-267.6Z"/>
  <path class="cls-7" d="M448.12,458.07l-36-36s-.66-144.02,51.24-182.76,170.49-109.25,219.34-106.27,104.29,38.01,108.47,90.49-71.66,152.79-121.47,181.5-213.07,84.04-213.07,84.04l-9.51-34.99"/>
  <path class="cls-7" d="M306.12,392.07l-27,2-50.87-180.09s-1.92-25.71,55.49-34.96c49.38-7.95,72.1,15.46,72.1,15.46l-49.73,197.58Z"/>
  <path class="cls-7" d="M241.12,436.07s-160.71-124.3-177.35-153.65-46.49-87.84,19.49-146.21,116.86-45.14,130.86-33.14,47.02,41.99,59.01,160.99,3.99,154,3.99,154l-36,18Z"/>
  <path class="cls-7" d="M336.12,419.07s-37.25-1.7-38-52,29.37-215.11,104-297C465.22.84,521.97-15.72,592.97,19.27s30.16,150.53,30.16,150.53c0,0-62.97,139.84-116,187.79s-77.32,85.81-171.01,61.48Z"/>
  <path class="cls-2" d="M742.36,475.56c57.13-15.89,88.77-45.9,100.13-56.95"/>
  <circle class="cls-5" cx="604.7" cy="607.37" r="225.41"/>
  <ellipse class="cls-6" cx="532.84" cy="551.94" rx="92.14" ry="76.76"/>
  <ellipse class="cls-6" cx="730.53" cy="557.37" rx="92.14" ry="76.76"/>
  <ellipse cx="548.67" cy="561.34" rx="49.5" ry="40.76"/>
  <ellipse cx="752.94" cy="579.48" rx="49.5" ry="40.76"/>
  <circle cx="795.03" cy="376.89" r="32.22"/>
  <circle cx="848.84" cy="396.52" r="32.22"/>
  <line class="cls-1" x1="839.83" y1="430.05" x2="780.36" y2="466.85"/>
  <path class="cls-2" d="M710.57,446.85c57.13-15.89,88.77-45.9,100.13-56.95"/>
  <path class="cls-2" d="M545.47,740.32c51.8,49.41,101.65,41.75,148.86,0"/>
  <path class="cls-3" d="M215.85,453.23c14.18,7.09,14.18,287.09,3.54,297.72s-85.06-35.44-83.29-54.94,12.41-37.22,12.41-101.01-19.49-69.11-12.41-86.84,65.57-62.03,79.75-54.94Z"/>
  <path class="cls-3" d="M384.21,440.82c10.63,23.04-28.58,79.06-30.13,161.27s31.04,127.98,44.3,161.27c1.77,21.27-90.38,33.67-101.01,14.18s-22.11-224.93-19.49-164.81-4.26-170.96,19.49-184.31,70.89,1.77,86.84,12.41Z"/>
</svg>
